<svg width="15" height="16" viewBox="0 0 15 16" fill="none" xmlns="http://www.w3.org/2000/svg">
<g clip-path="url(#clip0_57028_479)">
<path fill-rule="evenodd" clip-rule="evenodd" d="M14.7303 13.4655C14.2673 14.8647 12.4533 15.5625 11.1573 15.4462C9.38729 15.2871 7.4613 14.3535 5.9993 13.3252C3.8503 11.8137 1.8373 9.47551 0.664295 6.99437C-0.164704 5.24117 -0.350702 3.08561 0.882298 1.48754C1.3383 0.896841 1.8313 0.581361 2.5723 0.544567C3.6003 0.494845 3.7443 1.07968 4.0973 1.99059C4.3603 2.67178 4.7113 3.36665 4.9073 4.07271C5.2743 5.39035 3.9913 5.44542 3.8293 6.5224C3.7283 7.20161 4.5563 8.11246 4.9303 8.59675C5.6633 9.54545 6.5443 10.3637 7.5383 10.9862C8.1073 11.3432 9.02629 11.9866 9.67829 11.6316C10.6823 11.0846 10.5873 9.40109 11.9913 9.97091C12.7183 10.2653 13.4223 10.6901 14.1163 11.062C15.1893 11.6358 15.1393 12.2304 14.7303 13.4655C15.0363 12.5427 14.4243 14.3884 14.7303 13.4655Z" fill="#FFA300"/>
</g>
<defs>
<clipPath id="clip0_57028_479">
<rect width="15" height="14.9167" fill="white" transform="translate(0 0.541626)"/>
</clipPath>
</defs>
</svg>
