<svg width="25" height="25" viewBox="0 0 20 20" fill="none" xmlns="http://www.w3.org/2000/svg">
<path d="M6.45828 2.08331C6.45828 1.73814 6.17846 1.45831 5.83328 1.45831C5.48811 1.45831 5.20828 1.73814 5.20828 2.08331V3.39936C4.00884 3.4954 3.22142 3.73112 2.64292 4.30962C2.06442 4.88812 1.82871 5.67554 1.73267 6.87498H18.2672C18.1712 5.67554 17.9354 4.88812 17.3569 4.30962C16.7784 3.73112 15.991 3.4954 14.7916 3.39936V2.08331C14.7916 1.73814 14.5118 1.45831 14.1666 1.45831C13.8214 1.45831 13.5416 1.73814 13.5416 2.08331V3.34406C12.9872 3.33331 12.3658 3.33331 11.6666 3.33331H8.33328C7.63409 3.33331 7.01267 3.33331 6.45828 3.34406V2.08331Z" fill="#414141"/>
<path fill-rule="evenodd" clip-rule="evenodd" d="M1.66663 10C1.66663 9.30083 1.66663 8.67942 1.67738 8.125H18.3225C18.3333 8.67942 18.3333 9.30083 18.3333 10V11.6667C18.3333 14.8093 18.3333 16.3807 17.357 17.357C16.3807 18.3333 14.8093 18.3333 11.6666 18.3333H8.33329C5.19059 18.3333 3.61925 18.3333 2.64293 17.357C1.66663 16.3807 1.66663 14.8093 1.66663 11.6667V10ZM14.1666 11.6667C14.6269 11.6667 15 11.2936 15 10.8333C15 10.3731 14.6269 10 14.1666 10C13.7064 10 13.3333 10.3731 13.3333 10.8333C13.3333 11.2936 13.7064 11.6667 14.1666 11.6667ZM14.1666 15C14.6269 15 15 14.6269 15 14.1667C15 13.7064 14.6269 13.3333 14.1666 13.3333C13.7064 13.3333 13.3333 13.7064 13.3333 14.1667C13.3333 14.6269 13.7064 15 14.1666 15ZM10.8333 10.8333C10.8333 11.2936 10.4602 11.6667 9.99996 11.6667C9.53971 11.6667 9.16663 11.2936 9.16663 10.8333C9.16663 10.3731 9.53971 10 9.99996 10C10.4602 10 10.8333 10.3731 10.8333 10.8333ZM10.8333 14.1667C10.8333 14.6269 10.4602 15 9.99996 15C9.53971 15 9.16663 14.6269 9.16663 14.1667C9.16663 13.7064 9.53971 13.3333 9.99996 13.3333C10.4602 13.3333 10.8333 13.7064 10.8333 14.1667ZM5.83329 11.6667C6.29353 11.6667 6.66663 11.2936 6.66663 10.8333C6.66663 10.3731 6.29353 10 5.83329 10C5.37306 10 4.99996 10.3731 4.99996 10.8333C4.99996 11.2936 5.37306 11.6667 5.83329 11.6667ZM5.83329 15C6.29353 15 6.66663 14.6269 6.66663 14.1667C6.66663 13.7064 6.29353 13.3333 5.83329 13.3333C5.37306 13.3333 4.99996 13.7064 4.99996 14.1667C4.99996 14.6269 5.37306 15 5.83329 15Z" fill="#414141"/>
</svg>
