<svg width="27" height="27" viewBox="0 0 22 22" fill="none" xmlns="http://www.w3.org/2000/svg">
<path d="M11.6875 2.51782C11.6875 2.13813 11.3797 1.83032 11 1.83032C10.6203 1.83032 10.3125 2.13813 10.3125 2.51782V3.66668H8.47917C7.59321 3.66668 6.875 4.38489 6.875 5.27085V7.2457C8.26782 7.11949 9.625 8.19554 9.625 9.76068V19.4792C9.625 19.5031 9.62445 19.5269 9.62344 19.5507V20.1667H12.3734V19.0208H12.375V12.1458C12.375 10.7536 13.5036 9.62501 14.8958 9.62501H15.125V5.27085C15.125 4.38489 14.4068 3.66668 13.5208 3.66668H11.6875V2.51782Z" fill="#414141"/>
<path d="M13.2902 20.1667H17.1876C18.0735 20.1667 18.7917 19.4485 18.7917 18.5625V12.1459C18.7917 11.2599 18.0735 10.5417 17.1876 10.5417H14.8959C14.0099 10.5417 13.2917 11.2599 13.2917 12.1459V19.0209H13.2902V20.1667Z" fill="#414141"/>
<path d="M8.70837 19.0208H8.70681V19.526L8.70672 19.5272V20.1667H8.02583H8.02087H4.81254C3.92658 20.1667 3.20837 19.4484 3.20837 18.5625V11.2655C3.20837 10.7252 3.48039 10.2212 3.93204 9.92455L6.2237 8.41978C7.29046 7.71931 8.70837 8.48452 8.70837 9.76075V19.0208Z" fill="#414141"/>
</svg>
