<svg width="27" height="27" viewBox="0 0 22 22" fill="none" xmlns="http://www.w3.org/2000/svg">
<path d="M19.7004 10.2589V11.9263C19.6955 12.0789 19.6394 12.2254 19.5411 12.3422C19.4428 12.4589 19.308 12.5392 19.1585 12.5701L17.7899 12.8063C17.7463 12.8141 17.702 12.8164 17.6579 12.8133C17.4974 13.4346 17.2503 14.0302 16.9238 14.5825C16.9579 14.611 16.9882 14.6437 17.0141 14.6798L17.8142 15.8145C17.8986 15.9421 17.9374 16.0944 17.9244 16.2468C17.9113 16.3991 17.8472 16.5426 17.7424 16.654L16.5613 17.8351C16.4499 17.9394 16.3066 18.0032 16.1545 18.016C16.0023 18.0288 15.8503 17.9899 15.723 17.9057L14.5883 17.1067C14.5517 17.081 14.5186 17.0507 14.4899 17.0164C13.9319 17.3457 13.3299 17.594 12.7021 17.754C12.714 17.821 12.714 17.8896 12.7021 17.9566L12.4913 19.1759C12.4563 19.346 12.3648 19.4994 12.2318 19.6112C12.0988 19.7229 11.932 19.7866 11.7584 19.7919H10.2416C10.0679 19.7866 9.90111 19.7229 9.76812 19.6112C9.63512 19.4994 9.54369 19.346 9.50861 19.1759L9.29788 17.9566C9.28584 17.8896 9.28584 17.821 9.29788 17.754C8.67002 17.594 8.06808 17.3457 7.51009 17.0164C7.48127 17.0503 7.44819 17.0802 7.41167 17.1056L6.27693 17.9057C6.14939 17.9901 5.99708 18.0289 5.8447 18.0159C5.69232 18.0028 5.54882 17.9387 5.43745 17.8339L4.2564 16.6528C4.15232 16.5415 4.08875 16.3984 4.07594 16.2465C4.06313 16.0946 4.10181 15.9429 4.18577 15.8157L4.98588 14.6809C5.01132 14.6445 5.04127 14.6114 5.07503 14.5825C4.74887 14.0301 4.50213 13.4345 4.34209 12.8133C4.29797 12.8164 4.25364 12.814 4.21009 12.8063L2.84146 12.5701C2.69186 12.5394 2.55699 12.4592 2.45866 12.3424C2.36032 12.2255 2.30427 12.0789 2.29956 11.9263V10.2589C2.30427 10.1063 2.36032 9.95973 2.45866 9.84291C2.55699 9.72608 2.69186 9.64584 2.84146 9.61516L4.21009 9.37895C4.25364 9.37126 4.29802 9.36931 4.34209 9.37316C4.50229 8.75198 4.74902 8.15639 5.07503 7.6039C5.04138 7.57489 5.01143 7.54183 4.98588 7.50548L4.18577 6.37074C4.10172 6.24336 4.06299 6.09141 4.0758 5.93934C4.08861 5.78727 4.15223 5.64394 4.2564 5.53242L5.43745 4.35137C5.54892 4.24674 5.6924 4.18274 5.84473 4.16971C5.99705 4.15669 6.14932 4.19539 6.27693 4.27958L7.41167 5.07969C7.44826 5.10538 7.48135 5.13575 7.51009 5.17C8.06246 4.84347 8.65806 4.59634 9.27935 4.4359C9.27545 4.39184 9.27739 4.34745 9.28514 4.3039L9.52135 2.93527C9.55203 2.78567 9.63227 2.6508 9.74909 2.55247C9.86592 2.45413 10.0125 2.39808 10.1651 2.39337H11.8348C11.9875 2.39808 12.134 2.45413 12.2509 2.55247C12.3677 2.6508 12.4479 2.78567 12.4786 2.93527L12.7148 4.3039C12.7224 4.34747 12.7243 4.39183 12.7206 4.4359C13.3419 4.59641 13.9375 4.84353 14.4899 5.17C14.5186 5.13575 14.5517 5.10538 14.5883 5.07969L15.723 4.27958C15.8505 4.19548 16.0025 4.15682 16.1547 4.16985C16.3068 4.18288 16.4501 4.24683 16.5613 4.35137L17.7424 5.53242C17.8469 5.6437 17.9109 5.78699 17.9239 5.93911C17.9369 6.09124 17.8983 6.24331 17.8142 6.37074L17.0141 7.50548C16.9882 7.54189 16.9578 7.57495 16.9238 7.6039C17.2503 8.15626 17.4974 8.75187 17.6579 9.37316C17.7019 9.36927 17.7463 9.37122 17.7899 9.37895L19.1585 9.61516C19.308 9.64603 19.4428 9.72632 19.5411 9.84311C19.6394 9.9599 19.6955 10.1064 19.7004 10.2589ZM13.963 11.0926C13.9628 10.5067 13.7889 9.93398 13.4632 9.44689C13.1375 8.95979 12.6747 8.58019 12.1334 8.35607C11.592 8.13194 10.9963 8.07336 10.4216 8.18773C9.84697 8.3021 9.31911 8.58428 8.90479 8.9986C8.49047 9.41292 8.20829 9.94078 8.09392 10.5154C7.97955 11.0901 8.03813 11.6858 8.26226 12.2272C8.48638 12.7685 8.86598 13.2313 9.35308 13.557C9.84017 13.8827 10.4129 14.0566 10.9988 14.0568C11.3881 14.057 11.7737 13.9804 12.1334 13.8315C12.4931 13.6826 12.8199 13.4643 13.0952 13.189C13.3705 12.9137 13.5888 12.5869 13.7377 12.2272C13.8866 11.8675 13.9632 11.4819 13.963 11.0926Z" fill="#414141"/>
</svg>
