<svg width="25" height="25" viewBox="0 0 20 20" fill="none" xmlns="http://www.w3.org/2000/svg">
<path d="M17.15 16.1417L14.6583 9.17502C14.4833 8.71669 14.0917 8.43336 13.6417 8.43336C13.1917 8.43336 12.8083 8.71669 12.6167 9.19169L10.1333 16.1417C10.0167 16.4667 10.1833 16.825 10.5083 16.9417C10.8333 17.0584 11.1917 16.8917 11.3083 16.5667L11.825 15.125H15.45L15.9667 16.5667C16.0583 16.825 16.3 16.9834 16.5583 16.9834C16.625 16.9834 16.7 16.975 16.7667 16.95C17.0917 16.8334 17.2584 16.475 17.1417 16.15L17.15 16.1417ZM12.2833 13.8667L13.65 10.0417L15.0167 13.8667H12.2833ZM10.1583 6.54169C8.27501 9.51669 6.57502 11.3167 4.50835 12.5167C4.40835 12.575 4.30002 12.6 4.20002 12.6C3.98335 12.6 3.77502 12.4917 3.65835 12.2917C3.48335 11.9917 3.58335 11.6084 3.88335 11.4417C5.63334 10.425 7.06668 8.96669 8.67502 6.55002H3.43335C3.09168 6.55002 2.80835 6.26669 2.80835 5.92502C2.80835 5.58336 3.09168 5.30002 3.43335 5.30002H6.55835V3.65002C6.55835 3.30836 6.84168 3.02502 7.18335 3.02502C7.52501 3.02502 7.80835 3.30836 7.80835 3.65002V5.30002H10.9333C11.275 5.30002 11.5583 5.58336 11.5583 5.92502C11.5583 6.26669 11.275 6.55002 10.9333 6.55002H10.15L10.1583 6.54169ZM10.1917 12.6C10.0833 12.6 9.97502 12.575 9.87502 12.5167C9.33335 12.2 8.80835 11.85 8.31667 11.4834C8.04167 11.275 7.98335 10.8834 8.19168 10.6084C8.40002 10.3334 8.79168 10.275 9.06668 10.4834C9.51668 10.825 10.0083 11.1417 10.5083 11.4334C10.8083 11.6084 10.9083 11.9917 10.7333 12.2917C10.6167 12.4917 10.4083 12.6 10.1917 12.6Z" fill="#414141"/>
</svg>
