<svg width="25" height="25" viewBox="0 0 20 20" fill="none" xmlns="http://www.w3.org/2000/svg">
<path fill-rule="evenodd" clip-rule="evenodd" d="M4.37496 8.37885V6.66669C4.37496 3.56009 6.89336 1.04169 9.99996 1.04169C13.1065 1.04169 15.625 3.56009 15.625 6.66669V8.37885C16.554 8.44827 17.1589 8.62335 17.601 9.0656C18.3333 9.79785 18.3333 10.9764 18.3333 13.3334C18.3333 15.6904 18.3333 16.8689 17.601 17.6011C16.8688 18.3334 15.6903 18.3334 13.3333 18.3334H6.66663C4.3096 18.3334 3.13109 18.3334 2.39886 17.6011C1.66663 16.8689 1.66663 15.6904 1.66663 13.3334C1.66663 10.9764 1.66663 9.79785 2.39886 9.0656C2.84105 8.62335 3.446 8.44827 4.37496 8.37885ZM5.62496 6.66669C5.62496 4.25045 7.58372 2.29169 9.99996 2.29169C12.4162 2.29169 14.375 4.25045 14.375 6.66669V8.33635C14.0558 8.33335 13.7095 8.33335 13.3333 8.33335H6.66663C6.29037 8.33335 5.94413 8.33335 5.62496 8.33635V6.66669ZM11.6666 13.3334C11.6666 14.2539 10.9205 15 9.99996 15C9.07946 15 8.33329 14.2539 8.33329 13.3334C8.33329 12.4129 9.07946 11.6667 9.99996 11.6667C10.9205 11.6667 11.6666 12.4129 11.6666 13.3334Z" fill="#414141"/>
</svg>
