<svg width="25" height="25" viewBox="0 0 20 20" fill="none" xmlns="http://www.w3.org/2000/svg">
<path d="M8.33337 16.6667H11.6667C11.6667 17.1087 11.4911 17.5326 11.1786 17.8452C10.866 18.1578 10.4421 18.3334 10 18.3334C9.55801 18.3334 9.13409 18.1578 8.82153 17.8452C8.50897 17.5326 8.33337 17.1087 8.33337 16.6667ZM15 13.3334V8.33335C14.9988 7.15262 14.5798 6.01041 13.8172 5.109C13.0546 4.20759 11.9976 3.60514 10.8334 3.40835V2.50002C10.8334 2.27901 10.7456 2.06704 10.5893 1.91076C10.433 1.75448 10.2211 1.66669 10 1.66669C9.77903 1.66669 9.56707 1.75448 9.41079 1.91076C9.2545 2.06704 9.16671 2.27901 9.16671 2.50002V3.40835C8.00249 3.60514 6.94548 4.20759 6.18286 5.109C5.42025 6.01041 5.00124 7.15262 5.00004 8.33335V13.3334L3.33337 15H16.6667L15 13.3334Z" fill="#414141"/>
</svg>
