<svg viewBox="0 0 20 20" fill="none" xmlns="http://www.w3.org/2000/svg">
<path fill-rule="evenodd" clip-rule="evenodd" d="M0.833374 4.16669C0.833374 2.78598 1.95267 1.66669 3.33337 1.66669H7.03208C8.17925 1.66669 9.17921 2.44743 9.45746 3.56035L9.81737 5.00002H11.25H16.6667C18.0475 5.00002 19.1667 6.11931 19.1667 7.50002V9.16669C19.1667 9.62694 18.7936 10 18.3334 10C17.8731 10 17.5 9.62694 17.5 9.16669V7.50002C17.5 7.03979 17.127 6.66669 16.6667 6.66669H11.25H9.81737H3.33337C2.87314 6.66669 2.50004 7.03979 2.50004 7.50002V8.33335V15.8334C2.50004 16.2936 2.87314 16.6667 3.33337 16.6667H7.50004C7.96027 16.6667 8.33337 17.0398 8.33337 17.5C8.33337 17.9603 7.96027 18.3334 7.50004 18.3334H3.33337C1.95267 18.3334 0.833374 17.2141 0.833374 15.8334V8.33335V7.50002V4.16669ZM2.50004 5.14228C2.76069 5.05015 3.04117 5.00002 3.33337 5.00002H8.09939L7.84053 3.96457C7.74779 3.5936 7.41447 3.33335 7.03208 3.33335H3.33337C2.87314 3.33335 2.50004 3.70645 2.50004 4.16669V5.14228ZM16.8097 15.6312C17.246 14.9725 17.5 14.1826 17.5 13.3334C17.5 11.0322 15.6345 9.16669 13.3334 9.16669C11.0322 9.16669 9.16671 11.0322 9.16671 13.3334C9.16671 15.6345 11.0322 17.5 13.3334 17.5C14.1826 17.5 14.9725 17.2459 15.6312 16.8097L17.7441 18.9226C18.0695 19.248 18.5972 19.248 18.9226 18.9226C19.248 18.5972 19.248 18.0695 18.9226 17.7441L16.8097 15.6312ZM10.8334 13.3334C10.8334 11.9526 11.9526 10.8334 13.3334 10.8334C14.7141 10.8334 15.8334 11.9526 15.8334 13.3334C15.8334 14.7141 14.7141 15.8334 13.3334 15.8334C11.9526 15.8334 10.8334 14.7141 10.8334 13.3334Z" fill="#414141"/>
</svg>
