<svg width="800" height="800" viewBox="0 0 800 800" fill="none" xmlns="http://www.w3.org/2000/svg">
<path d="M187.5 50C215.163 50.0131 241.852 60.2182 262.467 78.6652C283.081 97.1123 296.176 122.508 299.25 150H350V200H200V150H248.75C245.835 135.043 237.556 121.667 225.47 112.386C213.384 103.105 198.324 98.5593 183.122 99.6035C167.919 100.648 153.622 107.21 142.918 118.056C132.215 128.902 125.843 143.285 125 158.5V400H775V450H725V575C724.987 599.311 717.886 623.091 704.565 643.428C691.244 663.765 672.282 679.776 650 689.5V750H600V700H200V750H150V689.5C128.626 680.205 110.277 665.12 97.0244 645.947C83.7716 626.775 76.143 604.279 75 581V450H25V400H75V162.5C75 132.663 86.8526 104.048 107.95 82.9505C129.048 61.8526 157.663 50 187.5 50ZM675 450H125V575C124.997 593.378 131.742 611.118 143.955 624.851C156.167 638.585 172.997 647.356 191.25 649.5L195.5 649.75L200 650H600C619.136 650.034 637.561 642.753 651.503 629.647C665.446 616.541 673.852 598.601 675 579.5V575V450Z" fill="#9B9B9B" stroke="#9B9B9B" stroke-width="15"/>
</svg>
