<svg width="36" height="36" viewBox="0 0 36 36" fill="none" xmlns="http://www.w3.org/2000/svg">
<path d="M18 0C15.6362 -3.52233e-08 13.2956 0.465584 11.1117 1.37017C8.92784 2.27475 6.94353 3.60062 5.27208 5.27208C3.60062 6.94353 2.27475 8.92784 1.37017 11.1117C0.465583 13.2956 0 15.6362 0 18C0 20.3638 0.465583 22.7044 1.37017 24.8883C2.27475 27.0722 3.60062 29.0565 5.27208 30.7279C6.94353 32.3994 8.92784 33.7252 11.1117 34.6298C13.2956 35.5344 15.6362 36 18 36C22.7739 36 27.3523 34.1036 30.7279 30.7279C34.1036 27.3523 36 22.7739 36 18C36 13.2261 34.1036 8.64773 30.7279 5.27208C27.3523 1.89642 22.7739 7.11366e-08 18 0ZM28.614 7.386C30.0084 8.77889 31.1138 10.4337 31.8665 12.2552C32.6192 14.0767 33.0044 16.0291 33 18H18L28.614 7.386Z" fill="black"/>
</svg>
