<svg width="44" height="44" viewBox="0 0 44 44" fill="none" xmlns="http://www.w3.org/2000/svg">
<path d="M15.2682 0C15.5555 -3.00321e-08 15.84 0.0566016 16.1054 0.166571C16.3708 0.276541 16.6119 0.437723 16.815 0.640911C17.0181 0.844099 17.1792 1.08531 17.289 1.35076C17.3989 1.61622 17.4554 1.90071 17.4552 2.188V6.562C17.443 7.13406 17.2072 7.67857 16.7983 8.07883C16.3893 8.47908 15.8399 8.70323 15.2677 8.70323C14.6955 8.70323 14.1461 8.47908 13.7372 8.07883C13.3283 7.67857 13.0925 7.13406 13.0802 6.562V2.189C13.0802 1.90167 13.1368 1.61715 13.2468 1.35169C13.3567 1.08623 13.5179 0.845025 13.7211 0.64185C14.1314 0.231521 14.6879 0 15.2682 0ZM6.51823 13.125H2.14123C1.56916 13.1372 1.02465 13.3731 0.624401 13.782C0.224147 14.1909 0 14.7403 0 15.3125C0 15.8847 0.224147 16.4341 0.624401 16.843C1.02465 17.2519 1.56916 17.4878 2.14123 17.5H6.51723C7.08929 17.4878 7.6338 17.2519 8.03405 16.843C8.43431 16.4341 8.65845 15.8847 8.65845 15.3125C8.65845 14.7403 8.43431 14.1909 8.03405 13.782C7.6338 13.3731 7.09029 13.1372 6.51823 13.125ZM32.7682 24.063H43.7052L32.7672 13.125L32.7682 24.063ZM30.5802 13.125H15.2672C14.6871 13.1253 14.1308 13.3559 13.7207 13.7662C13.3106 14.1765 13.0802 14.7329 13.0802 15.313V41.563C13.0805 42.1431 13.3111 42.6994 13.7214 43.1095C14.1317 43.5196 14.6881 43.75 15.2682 43.75H41.5182C42.0983 43.7497 42.6546 43.5191 43.0647 43.1088C43.4748 42.6985 43.7052 42.1421 43.7052 41.562V26.251H30.5802V13.125Z" fill="black"/>
</svg>
