<svg width="15" height="33" viewBox="0 0 15 33" fill="none" xmlns="http://www.w3.org/2000/svg">
<g clip-path="url(#clip0_57223_384)">
<path d="M13.541 3.521H1.45898V5.031H13.541V3.521Z" fill="#9B9B9B"/>
<path d="M13.541 2.768V1.445C13.541 0.924 13.119 0.502 12.598 0.5H2.40199C1.88099 0.502 1.45898 0.924 1.45898 1.445V2.765L13.541 2.768Z" fill="#9B9B9B"/>
<path d="M1.45898 5.78699V13.652C1.45898 14.173 1.88099 14.597 2.40199 14.597H2.82399C3.13099 12.288 5.10698 10.505 7.49998 10.505C9.89498 10.507 11.869 12.288 12.178 14.597H12.598C13.119 14.597 13.541 14.173 13.541 13.654V5.78699H1.45898ZM7.49998 9.75199C6.66598 9.75199 5.98998 9.07599 5.98998 8.24199C5.98998 7.40799 6.66598 6.72999 7.49998 6.72999C8.33398 6.72999 9.00998 7.40799 9.00998 8.24199C9.00998 9.07599 8.33398 9.75199 7.49998 9.75199Z" fill="#9B9B9B"/>
<path d="M7.50004 9.30098C8.08491 9.30098 8.55904 8.82685 8.55904 8.24198C8.55904 7.65711 8.08491 7.18298 7.50004 7.18298C6.91517 7.18298 6.44104 7.65711 6.44104 8.24198C6.44104 8.82685 6.91517 9.30098 7.50004 9.30098Z" fill="#9B9B9B"/>
<path d="M7.50105 30.259C8.40017 30.259 9.12905 29.5301 9.12905 28.631C9.12905 27.7319 8.40017 27.003 7.50105 27.003C6.60193 27.003 5.87305 27.7319 5.87305 28.631C5.87305 29.5301 6.60193 30.259 7.50105 30.259Z" fill="#9B9B9B"/>
<path d="M8.92198 11.422C8.47298 11.279 7.99598 11.199 7.49998 11.199C7.00398 11.199 6.52698 11.279 6.07798 11.422C6.09798 14.676 5.95898 22.475 4.32398 26.424C3.88798 27.051 3.63098 27.811 3.63098 28.631C3.63098 30.764 5.36698 32.5 7.49998 32.5C9.63498 32.5 11.371 30.764 11.371 28.631C11.371 27.811 11.113 27.051 10.676 26.424C9.04298 22.475 8.90398 14.676 8.92198 11.422ZM7.49998 30.787C6.31098 30.787 5.34398 29.82 5.34398 28.631C5.34398 27.442 6.31098 26.475 7.49998 26.475C8.68898 26.475 9.65798 27.442 9.65798 28.631C9.65798 29.82 8.68898 30.787 7.49998 30.787Z" fill="#9B9B9B"/>
<path d="M3.41805 26.979H1.52205C1.20905 26.979 0.956055 27.233 0.956055 27.545V29.717C0.956055 30.03 1.21005 30.281 1.52205 30.283L3.41805 30.281C3.21105 29.771 3.09605 29.215 3.09605 28.631C3.09605 28.047 3.21105 27.49 3.41805 26.979Z" fill="#9B9B9B"/>
<path d="M13.479 26.979H11.583C11.792 27.491 11.907 28.047 11.907 28.631C11.907 29.215 11.792 29.772 11.583 30.283H13.479C13.792 30.283 14.045 30.029 14.045 29.715V27.545C14.045 27.232 13.791 26.979 13.479 26.979Z" fill="#9B9B9B"/>
</g>
<defs>
<clipPath id="clip0_57223_384">
<rect width="15" height="33" fill="white"/>
</clipPath>
</defs>
</svg>
