<svg width="800" height="800" viewBox="0 0 800 800" fill="none" xmlns="http://www.w3.org/2000/svg">
<path fill-rule="evenodd" clip-rule="evenodd" d="M296.824 141.667C297.869 141.667 298.927 141.667 300 141.667H500C501.073 141.667 502.13 141.667 503.177 141.667C531.11 141.663 548.893 141.66 564.223 144.71C627.033 157.203 676.13 206.302 688.623 269.111C690.947 280.78 691.497 293.868 691.627 311.774C730.123 322.643 758.333 358.027 758.333 400V481.483C758.333 532.473 731.74 577.253 691.667 602.71V633.333C691.667 647.14 680.473 658.333 666.667 658.333C652.86 658.333 641.667 647.14 641.667 633.333V622.493C632.967 624.14 623.993 625 614.813 625H185.185C176.008 625 167.032 624.14 158.333 622.493V633.333C158.333 647.14 147.14 658.333 133.333 658.333C119.526 658.333 108.333 647.14 108.333 633.333V602.71C68.2597 577.253 41.6667 532.473 41.6667 481.483V400C41.6667 358.027 69.877 322.643 108.372 311.774C108.502 293.868 109.055 280.78 111.376 269.111C123.869 206.302 172.968 157.203 235.777 144.71C251.108 141.66 268.889 141.663 296.824 141.667ZM158.389 311.8C196.836 322.701 225 358.063 225 400V440C225 440.92 225.746 441.667 226.667 441.667H573.333C574.253 441.667 575 440.92 575 440V400C575 358.063 603.163 322.701 641.61 311.8C641.477 294.819 641.033 286.14 639.587 278.866C631.037 235.891 597.443 202.297 554.467 193.749C544.613 191.788 532.177 191.667 500 191.667H300C267.825 191.667 255.388 191.788 245.532 193.749C202.557 202.297 168.963 235.891 160.415 278.866C158.968 286.14 158.523 294.819 158.389 311.8ZM133.333 358.333C110.321 358.333 91.6667 376.99 91.6667 400V481.483C91.6667 533.13 133.536 575 185.185 575H614.813C666.463 575 708.333 533.13 708.333 481.483V400C708.333 376.99 689.68 358.333 666.667 358.333C643.653 358.333 625 376.99 625 400V440C625 468.537 601.867 491.667 573.333 491.667H226.667C198.132 491.667 175 468.537 175 440V400C175 376.99 156.345 358.333 133.333 358.333Z" fill="#9B9B9B"/>
<path d="M688.623 269.111C676.13 206.302 627.033 157.203 564.223 144.71C548.893 141.66 531.11 141.663 503.177 141.667C502.13 141.667 501.073 141.667 500 141.667H300C298.927 141.667 297.869 141.667 296.824 141.667C268.889 141.663 251.108 141.66 235.777 144.71C172.968 157.203 123.869 206.302 111.376 269.111C109.055 280.78 108.502 293.868 108.372 311.774C69.877 322.643 41.6667 358.027 41.6667 400V481.483C41.6667 532.473 68.2597 577.253 108.333 602.71V633.333C108.333 647.14 119.526 658.333 133.333 658.333C147.14 658.333 158.333 647.14 158.333 633.333V622.493C167.032 624.14 176.008 625 185.185 625H614.813C623.993 625 632.967 624.14 641.667 622.493V633.333C641.667 647.14 652.86 658.333 666.667 658.333C680.473 658.333 691.667 647.14 691.667 633.333V602.71C731.74 577.253 758.333 532.473 758.333 481.483V400C758.333 358.027 730.123 322.643 691.627 311.774C691.497 293.868 690.947 280.78 688.623 269.111ZM688.623 269.111L664.103 273.989M158.389 311.8C196.836 322.701 225 358.063 225 400V440C225 440.92 225.746 441.667 226.667 441.667H573.333C574.253 441.667 575 440.92 575 440V400C575 358.063 603.163 322.701 641.61 311.8C641.477 294.819 641.033 286.14 639.587 278.866C631.037 235.891 597.443 202.297 554.467 193.749C544.613 191.788 532.177 191.667 500 191.667H300C267.825 191.667 255.388 191.788 245.532 193.749C202.557 202.297 168.963 235.891 160.415 278.866C158.968 286.14 158.523 294.819 158.389 311.8ZM133.333 358.333C110.321 358.333 91.6667 376.99 91.6667 400V481.483C91.6667 533.13 133.536 575 185.185 575H614.813C666.463 575 708.333 533.13 708.333 481.483V400C708.333 376.99 689.68 358.333 666.667 358.333C643.653 358.333 625 376.99 625 400V440C625 468.537 601.867 491.667 573.333 491.667H226.667C198.132 491.667 175 468.537 175 440V400C175 376.99 156.345 358.333 133.333 358.333Z" stroke="#9B9B9B" stroke-width="15"/>
</svg>
