<svg width="800" height="800" viewBox="0 0 800 800" fill="none" xmlns="http://www.w3.org/2000/svg">
<path d="M709.841 104.986H562.377C546.088 104.986 532.884 118.19 532.884 134.478V252.449H503.392V104.986H532.884C549.173 104.986 562.377 91.782 562.377 75.4937C562.377 59.204 549.173 46 532.884 46H473.898C473.723 46 473.553 46.0235 473.379 46.0263C472.849 46.0359 472.321 46.0691 471.791 46.1065C471.333 46.1396 470.874 46.17 470.42 46.2226C469.945 46.2793 469.472 46.3594 468.999 46.4396C468.51 46.5212 468.02 46.6 467.54 46.7051C467.102 46.8018 466.671 46.9235 466.237 47.0396C465.745 47.1723 465.251 47.2995 464.77 47.4557C464.336 47.5968 463.91 47.7654 463.481 47.9272C463.022 48.1014 462.561 48.2673 462.113 48.4636C461.665 48.6585 461.228 48.8838 460.788 49.1023C460.379 49.3069 459.966 49.5032 459.568 49.7244C459.125 49.9705 458.695 50.2456 458.264 50.5165C457.884 50.7557 457.501 50.988 457.132 51.2437C456.727 51.5244 456.335 51.8299 455.943 52.1327C455.564 52.4244 455.184 52.7147 454.819 53.0243C454.471 53.3216 454.135 53.6382 453.796 53.9534C453.41 54.3142 453.029 54.6764 452.662 55.0566C452.541 55.1838 452.408 55.2916 452.288 55.4216L68.8806 468.324C57.7973 480.26 58.4885 498.92 70.4248 510.004C82.3611 521.087 101.022 520.396 112.105 508.46L119.985 499.973V547.376C103.697 547.378 90.4928 560.582 90.4928 576.87V724.334C90.4928 740.623 103.697 753.827 119.985 753.827H709.841C726.129 753.827 739.333 740.623 739.333 724.334V134.478C739.333 118.19 726.129 104.986 709.841 104.986ZM414.914 252.449C398.625 252.449 385.421 265.653 385.421 281.941V399.913H326.435V281.943C326.435 280.591 326.312 279.269 326.137 277.965L444.406 150.598V252.45H414.914V252.449ZM178.971 436.451L267.449 341.166V399.913C251.161 399.913 237.957 413.117 237.957 429.406V547.376H178.971V436.451ZM680.349 694.841H149.479V606.362H267.449C283.738 606.362 296.942 593.158 296.942 576.87V458.899H414.912C431.201 458.899 444.405 445.695 444.405 429.407V311.435H562.375C578.664 311.435 591.868 298.231 591.868 281.943V163.971H680.346V694.841H680.349Z" fill="#9B9B9B"/>
</svg>
