<svg width="800" height="800" viewBox="0 0 800 800" fill="none" xmlns="http://www.w3.org/2000/svg">
<path d="M518.727 312.084L706.669 125.352L706.057 231.201C705.861 240.025 712.852 247.692 721.701 247.495L732.909 247.474C741.736 247.277 749.055 242.013 749.252 233.189L749.711 75.5073C749.711 75.3544 749.121 75.2452 749.121 75.0923L749.995 67.0979C750.082 62.6639 749.034 58.7104 746.193 55.8927C743.353 53.0314 739.398 51.3058 735.007 51.4369L727.01 51.6334C726.857 51.6334 726.748 51.699 726.573 51.7208L569.875 51.0218C561.048 51.2184 553.75 58.5138 553.554 67.3601L553.532 78.5653C554.865 88.9623 563.058 95.0564 571.885 94.8598L675.141 95.1438L487.855 281.242C479.334 289.761 479.334 303.609 487.855 312.149C496.376 320.69 510.206 320.668 518.749 312.149L518.727 312.084ZM281.953 487.916L94.011 674.08L94.6009 568.799C94.8194 559.975 87.7841 552.286 78.9573 552.483L67.0716 552.505C58.2229 552.723 50.9254 557.965 50.7288 566.79L50.27 724.471C50.27 724.624 50.8817 724.711 50.8817 724.886L50.0078 732.858C49.8986 737.292 50.9473 741.268 53.8095 744.085C56.6279 746.947 60.6044 748.672 64.996 748.563L72.9926 748.367C73.1455 748.367 73.2548 748.301 73.4296 748.301L230.805 749C239.632 748.782 246.93 741.486 247.148 732.662L247.17 721.435C245.815 711.038 237.644 704.944 228.817 705.14L125.56 704.878L312.825 518.823C321.346 510.305 321.346 496.478 312.825 487.938C304.304 479.398 290.474 479.376 281.953 487.916ZM749.733 724.471L749.274 566.79C749.077 557.965 741.78 552.701 732.953 552.505L721.745 552.483C712.918 552.286 705.904 559.975 706.101 568.799L706.713 674.648L518.771 487.916C510.25 479.398 496.419 479.398 487.877 487.916C479.334 496.435 479.356 510.261 487.877 518.802L675.141 704.856L571.885 705.118C563.058 704.922 554.865 711.016 553.532 721.413L553.554 732.64C553.75 741.464 561.07 748.782 569.875 748.978L726.573 748.279C726.748 748.279 726.857 748.345 727.01 748.345L735.007 748.541C739.398 748.651 743.397 746.925 746.193 744.064C749.055 741.246 750.082 737.271 749.995 732.837L749.121 724.864C749.121 724.689 749.711 724.602 749.711 724.449L749.733 724.471ZM125.56 95.1001L228.839 94.838C237.666 95.0345 245.837 88.9405 247.192 78.5434L247.17 67.3382C246.952 58.492 239.654 51.1966 230.827 51L73.4296 51.6771C73.2548 51.6553 73.1455 51.5897 72.9926 51.5897L64.996 51.3932C60.6044 51.284 56.6279 53.0095 53.8095 55.849C50.9254 58.6886 49.8986 62.6202 50.0078 67.0761L50.8817 75.0705C50.8817 75.2234 50.27 75.3326 50.27 75.5073L50.7288 233.189C50.9254 242.013 58.2229 247.277 67.0716 247.474L78.9791 247.495C87.806 247.692 94.7975 240.025 94.6009 231.201L93.9891 125.942L281.931 312.106C290.452 320.624 304.304 320.624 312.825 312.106C321.346 303.587 321.346 289.739 312.825 281.198L125.56 95.1001Z" fill="#9B9B9B" stroke="#9B9B9B" stroke-width="8"/>
</svg>
