<svg width="23" height="23" viewBox="0 0 20 20" fill="none" xmlns="http://www.w3.org/2000/svg">
<path d="M8.33335 2.08334C9.49833 2.0833 10.6401 2.40885 11.6299 3.02328C12.6197 3.6377 13.4181 4.51653 13.9349 5.5606C14.4517 6.60466 14.6665 7.77239 14.5549 8.93202C14.4433 10.0916 14.0098 11.197 13.3034 12.1233L17.2559 16.0775C17.4053 16.2275 17.4921 16.4287 17.4985 16.6403C17.505 16.852 17.4307 17.0581 17.2906 17.2169C17.1506 17.3757 16.9554 17.4753 16.7446 17.4953C16.5339 17.5154 16.3233 17.4545 16.1559 17.325L16.0775 17.2558L12.1234 13.3033C11.3342 13.9051 10.4131 14.3103 9.43622 14.4853C8.45937 14.6604 7.45487 14.6003 6.50585 14.3101C5.55683 14.0199 4.69056 13.5078 3.97873 12.8163C3.2669 12.1248 2.72997 11.2737 2.41237 10.3335C2.09478 9.39328 2.00564 8.39094 2.15235 7.40944C2.29905 6.42793 2.67737 5.49546 3.25601 4.6892C3.83465 3.88294 4.59697 3.22606 5.47989 2.77292C6.3628 2.31977 7.34094 2.0834 8.33335 2.08334ZM8.33335 3.75001C7.11777 3.75001 5.95199 4.2329 5.09244 5.09244C4.2329 5.95198 3.75002 7.11777 3.75002 8.33334C3.75002 9.54892 4.2329 10.7147 5.09244 11.5742C5.95199 12.4338 7.11777 12.9167 8.33335 12.9167C9.54893 12.9167 10.7147 12.4338 11.5743 11.5742C12.4338 10.7147 12.9167 9.54892 12.9167 8.33334C12.9167 7.11777 12.4338 5.95198 11.5743 5.09244C10.7147 4.2329 9.54893 3.75001 8.33335 3.75001Z" fill="#FF9C01"/>
</svg>
