<svg viewBox="0 0 16 16" fill="none" xmlns="http://www.w3.org/2000/svg">
<path fill-rule="evenodd" clip-rule="evenodd" d="M10.1054 5.20995C10.5886 5.69782 11.259 6.00002 12 6.00002C13.4727 6.00002 14.6666 4.80611 14.6666 3.33335C14.6666 1.86059 13.4727 0.666687 12 0.666687C10.5272 0.666687 9.33331 1.86059 9.33331 3.33335C9.33331 3.58471 9.36811 3.82794 9.43311 4.05851L5.89463 6.12347C5.41136 5.63557 4.74096 5.33335 3.99998 5.33335C2.52722 5.33335 1.33331 6.52726 1.33331 8.00002C1.33331 9.47275 2.52722 10.6667 3.99998 10.6667C4.74108 10.6667 5.41157 10.3644 5.89485 9.87635L9.43391 11.9386C9.36838 12.17 9.33331 12.4143 9.33331 12.6667C9.33331 14.1394 10.5272 15.3334 12 15.3334C13.4727 15.3334 14.6666 14.1394 14.6666 12.6667C14.6666 11.194 13.4727 10 12 10C11.2601 10 10.5906 10.3014 10.1075 10.788L6.56697 8.72482C6.63191 8.49435 6.66665 8.25122 6.66665 8.00002C6.66665 7.74869 6.63187 7.50549 6.56689 7.27495L10.1054 5.20995ZM12 2.00002C11.2636 2.00002 10.6666 2.59697 10.6666 3.33335C10.6666 3.56495 10.7257 3.78277 10.8296 3.97255C10.8363 3.9828 10.8428 3.9933 10.8491 4.00403C10.8553 4.01469 10.8612 4.02544 10.8668 4.03628C11.102 4.41473 11.5216 4.66669 12 4.66669C12.7364 4.66669 13.3333 4.06973 13.3333 3.33335C13.3333 2.59697 12.7364 2.00002 12 2.00002ZM5.13304 7.29689C5.13865 7.30782 5.14459 7.31869 5.15086 7.32942C5.15717 7.34022 5.16375 7.35082 5.17057 7.36115C5.27433 7.55082 5.33331 7.76855 5.33331 8.00002C5.33331 8.23162 5.27425 8.44949 5.17035 8.63929C5.16353 8.64962 5.15696 8.66022 5.15065 8.67109C5.14453 8.68155 5.13873 8.69215 5.13324 8.70289C4.898 9.08135 4.47841 9.33335 3.99998 9.33335C3.2636 9.33335 2.66665 8.73642 2.66665 8.00002C2.66665 7.26362 3.2636 6.66669 3.99998 6.66669C4.47828 6.66669 4.89776 6.91855 5.13304 7.29689ZM10.6666 12.6667C10.6666 12.45 10.7184 12.2454 10.8101 12.0644C10.8266 12.0428 10.8419 12.0198 10.856 11.9957C10.8694 11.9726 10.8814 11.949 10.8918 11.925C11.1311 11.5682 11.5381 11.3334 12 11.3334C12.7364 11.3334 13.3333 11.9303 13.3333 12.6667C13.3333 13.4031 12.7364 14 12 14C11.2636 14 10.6666 13.4031 10.6666 12.6667Z" fill="black"/>
</svg>
